<svg id="logo-reverse-svg" xmlns="http://www.w3.org/2000/svg" viewBox="0 0 71 71">
  <defs>
    <style>
      #logo-reverse-svg .logo__bg {
        fill: none;
        stroke: #fff;
      }

      #logo-reverse-svg .logo__o,
      #logo-reverse-svg .logo__l,
      #logo-reverse-svg .logo__x {
        fill: #fff;
      }
    </style>
  </defs>
  <title>logo-reverse</title>
  <path class="logo__bg" d="M71,36A35,35,0,1,1,36,1,35,35,0,0,1,71,36" transform="translate(-0.5 -0.5)"/>
  <path class="logo__o" d="M15.041,22.533c-6.531,0-11.827,6.23-11.827,13.916s5.3,13.918,11.827,13.918S26.867,44.135,26.867,36.45,21.573,22.533,15.041,22.533m0,23.449c-3.1,0-5.607-4.267-5.607-9.532s2.51-9.532,5.607-9.532,5.608,4.268,5.608,9.532-2.511,9.532-5.608,9.532" transform="translate(-0.5 -0.5)"/>
  <path class="logo__l" d="M41.811,35.955h-5.78l0.006-.008a0.781,0.781,0,0,1-.847-0.729V20.412a1.585,1.585,0,0,0-1.584-1.586h-3.82A1.585,1.585,0,0,0,28.2,20.412V40.59a1.584,1.584,0,0,0,1.583,1.584H41.811a1.583,1.583,0,0,0,1.583-1.584V37.538a1.583,1.583,0,0,0-1.583-1.583" transform="translate(-0.5 -0.5)"/>
  <path class="logo__x" d="M65.843,47.257L57.328,34.705c2.238-3.278,4.242-6.109,5.251-7.284,3.07-3.584,1.47-5.5,1.47-5.5-2.3-1.024-4.031,1.343-4.031,1.343s-2.677,3.06-5.889,6.726l-4.476-6.6a2.887,2.887,0,0,0-3.775-1.025c-2.081.887-.9,4.033-0.9,4.033s2.113,4.026,4.6,8.788c-3.335,3.809-6.2,7.074-6.26,7.144-2.3,2.5-1.408,4.672-1.408,4.672a22.772,22.772,0,0,0,2.494,3.775c1.216,1.345,2.753-.768,2.753-0.768s2.57-3.956,5.658-8.6c2.221,4.293,4.144,8.054,4.516,8.919a2.872,2.872,0,0,0,2.88,1.983,23.267,23.267,0,0,0,5.694-1.6c1.919-1.025-.064-3.456-0.064-3.456" transform="translate(-0.5 -0.5)"/>
</svg>
