<svg id="logo-reverse-svg" xmlns="http://www.w3.org/2000/svg" viewBox="0 0 71 71"><defs><style>#logo-reverse-svg .logo__bg{fill:none;stroke:#fff}#logo-reverse-svg .logo__o,#logo-reverse-svg .logo__l,#logo-reverse-svg .logo__x{fill:#fff}</style></defs><title>logo-reverse</title><path class="logo__bg" d="M70.5 35.5a35 35 0 1 1-35-35 35 35 0 0 1 35 35"/><path class="logo__o" d="M14.54 22.033c-6.53 0-11.826 6.23-11.826 13.916s5.3 13.917 11.827 13.917 11.827-6.232 11.827-13.917-5.294-13.917-11.826-13.917m0 23.45c-3.1 0-5.606-4.268-5.606-9.533s2.51-9.532 5.607-9.532 5.61 4.268 5.61 9.532-2.512 9.532-5.61 9.532"/><path class="logo__l" d="M41.31 35.455h-5.78l.007-.008a.78.78 0 0 1-.847-.73V19.913a1.585 1.585 0 0 0-1.584-1.586h-3.82a1.585 1.585 0 0 0-1.586 1.586V40.09a1.584 1.584 0 0 0 1.583 1.584H41.31a1.583 1.583 0 0 0 1.584-1.584v-3.052a1.583 1.583 0 0 0-1.583-1.583"/><path class="logo__x" d="M65.343 46.757l-8.515-12.552c2.238-3.278 4.242-6.11 5.25-7.284 3.07-3.583 1.47-5.5 1.47-5.5-2.3-1.023-4.03 1.344-4.03 1.344s-2.677 3.06-5.89 6.726l-4.475-6.6a2.887 2.887 0 0 0-3.775-1.025c-2.08.887-.9 4.033-.9 4.033s2.113 4.026 4.6 8.788c-3.335 3.81-6.2 7.074-6.26 7.144-2.3 2.5-1.408 4.672-1.408 4.672a22.772 22.772 0 0 0 2.494 3.775c1.216 1.345 2.753-.768 2.753-.768s2.57-3.957 5.658-8.6c2.22 4.292 4.144 8.053 4.516 8.918a2.872 2.872 0 0 0 2.88 1.983 23.267 23.267 0 0 0 5.695-1.6c1.92-1.024-.064-3.455-.064-3.455"/></svg>